<svg xmlns="http://www.w3.org/2000/svg" viewBox="0 0 560 560" role="img" aria-labelledby="title">
  <title>Potato Chips AI</title>
  <rect width="560" height="560" rx="112" fill="#050505"/>
  <path d="M128 314c0-99 63-171 156-171 91 0 148 65 148 156 0 74-45 124-111 124-36 0-67-13-88-36-18 31-47 49-83 49-50 0-82-31-82-79 0-48 32-79 78-79 23 0 43 8 58 22v-7c0-47 31-83 78-83 50 0 82 36 82 90 0 42-22 70-57 70-20 0-35-8-44-22-13 17-31 26-53 26-45 0-75-31-75-79 0-51 31-85 78-85 20 0 38 7 51 20l3-17h43l-17 105c-3 20 4 30 20 30 24 0 39-25 39-63 0-66-42-111-105-111-68 0-115 55-115 134 0 70 48 116 120 116 37 0 69-11 95-33l23 35c-34 28-75 42-121 42-99 0-169-65-169-170Zm119-18c0 26 15 43 38 43 25 0 42-19 42-46 0-25-16-42-40-42s-40 18-40 45Z" fill="#f7f3e8"/>
  <path d="M181 133c32-34 72-51 119-51 74 0 132 38 165 98" fill="none" stroke="#f4c542" stroke-width="22" stroke-linecap="round"/>
</svg>
